<svg width="498" height="650" viewBox="0 0 498 650" fill="none" xmlns="http://www.w3.org/2000/svg">
<path fill-rule="evenodd" clip-rule="evenodd" d="M264.352 649.582C277.828 648.395 430.665 596.657 457.665 588.058C507.596 572.157 496.871 587.542 497.039 500.573C497.067 485.95 498.884 379.379 495.426 375.07C488.487 366.42 408.656 394.94 395.975 398.856C363.234 408.968 331.116 418.561 298.202 428.558C253.971 441.992 264.506 455.218 264.47 522.152C264.448 564.433 265.239 607.387 264.352 649.582Z" fill="#0352A0"/>
<path fill-rule="evenodd" clip-rule="evenodd" d="M0.00266206 390.719L0.0200021 555.502C0.0720201 581.041 -2.70227 573.508 45.4824 589.886C69.5708 598.074 220.131 648.458 232.757 649.829L232.693 473.111C232.673 454.131 234.525 450.688 222.859 439.923C214.101 431.842 204.702 430.795 192.595 427.007L24.0857 375.878C2.82497 369.153 0.0987009 368.369 0 390.718L0.00266206 390.719Z" fill="#0352A0"/>
<path fill-rule="evenodd" clip-rule="evenodd" d="M265.017 292.839C260.426 298.561 246.193 302.89 239.402 303.568C228.505 304.655 218.807 301.291 209.323 298.745C212.663 305.359 224.363 311.161 234.072 311.785C248.584 312.718 254.728 305.925 263.189 301.509C263.207 301.529 272.791 317.989 285.646 312.848C292.125 308.368 297.135 298.402 291.249 291.374C285.98 285.083 273.495 287.17 278.482 301.537L284.711 302.481L287.849 296.824C289.867 300.788 288.499 301.562 285.91 304.772L279.007 304.887C265.185 291.833 287.129 273.347 296.203 295.542C305.71 296.907 311.155 298.952 319.245 293.595C323.036 291.088 330.214 284.688 330.261 277.766C314.214 276.649 315.951 270.55 309.605 259.819C305.601 253.05 296.8 244.237 285.644 247.67L285.203 252.305C285.63 255.184 285.827 254.075 286.122 257.989C296.055 257.727 303.125 259.449 306.385 266.142C301.298 261.671 297.118 259.373 287.196 260.505C281.894 267.79 285.566 271.486 276.298 279.7C270.424 284.904 261.62 287.781 253.929 281.149C233.91 263.887 263.477 240.353 269.485 260.153C263.137 259.099 264.492 253.729 256.981 256.282C244.832 260.412 248.748 286.377 267.746 281.598C282.138 277.978 292.292 249.518 272.566 237.417C240.839 217.956 219.842 259.337 237.074 284.795C242.762 293.199 251.61 294.446 265.015 292.839H265.017Z" fill="#FEC201"/>
<path fill-rule="evenodd" clip-rule="evenodd" d="M124.559 340.477C128.258 327.923 145.783 300.371 150.964 284.639L143.291 280.041L109.375 350.365C133.745 350.759 158.951 344.062 185.247 344.149C215.739 344.25 227.498 349.837 249.979 360.633C254.96 359.505 260.436 356.393 265.251 354.58C319.86 334.025 348.201 350.803 390.174 350.277L354.239 280.86L347.383 285.127L374.833 340.059C323.143 335.101 297.727 331.63 251.3 350.251C244.239 349.068 232.741 342.907 223.452 340.558C186.393 331.185 159.621 338.508 124.559 340.475V340.477Z" fill="#FEC201"/>
<path fill-rule="evenodd" clip-rule="evenodd" d="M241.66 157.078C228.889 156.762 220.905 161.603 213.477 166.975C216.731 158.276 231.168 144.858 237.562 138.777C225.789 140.697 219.128 150.413 212.354 158.91L208.602 162.422C210.862 144.79 226.575 139.3 233.988 129.134C223.918 130.719 209.271 143.572 207.575 151.164L203.089 198.587C213.153 193.084 204.161 185.279 217.129 172.975C222.029 168.325 232.759 159.813 241.594 158.498C242.152 163.177 242.088 170.963 243.002 174.953C244.077 179.654 244.88 175.29 244.423 181.72C244.227 184.495 236.659 211.424 249.979 217.133C256.412 211.261 258.982 200.884 256.834 191.037C255.677 185.728 253.233 158.151 260.01 158.983C264.995 159.594 278.554 169.479 281.886 172.597C291.493 181.595 287.786 190.409 294.758 199.177C295.872 197.264 296.403 200.141 294.938 189.999L291.704 154.275C290.873 143.46 275.44 131.299 265.187 129.045C271.769 139.674 289.214 144.558 290.737 163.273C284.189 158.097 278.755 143.058 261.692 138.643C265.531 144.486 283.492 157.644 285.172 166.775C279.898 161.631 268.224 156.712 257.521 157.097L260.696 109.026L238.725 108.922L241.66 157.078Z" fill="#FEC201"/>
<path fill-rule="evenodd" clip-rule="evenodd" d="M142.197 180.252C144.473 169.239 149.864 164.644 154.199 155.023C158.395 145.713 161.54 136 165.553 126.741C169.808 116.923 189.938 79.4876 205.83 95.6932C207.6 102.492 205.909 105.857 205.276 112.895C203.693 111.022 203.465 112.436 202.978 108.692C199.225 113.661 194.677 120.907 191.729 126.552C193.748 129.404 198.91 133.083 195.525 139.447C192.647 144.857 186.267 143.664 181.283 141.028L174.439 145.049C169.078 157.884 172.414 149.663 168.653 153.416C166.668 155.397 165.801 159.733 163.441 162.907C160.616 166.703 163.282 160.262 160.921 166.858C160.361 168.422 159.734 171.626 159.362 173.168C158.176 178.083 158 182.098 160.39 185.818C164.804 192.687 185.766 208.362 197.191 208.85C202.179 185.499 204.924 152.806 205.226 127.874C205.37 115.911 207.102 111.252 207.606 99.92C207.804 100.212 208.161 100.249 208.224 100.78L209.476 105.326C209.649 107.369 209.376 111.156 209.044 113.211C208.163 118.657 205.79 120.61 207.701 123.523C222.17 90.6954 189.69 65.3373 171.359 106.109C168.786 111.835 167.329 118.485 164.921 124.625C162.308 131.287 159.913 136.547 157.174 143.326C154.356 150.308 152.824 155.539 149.222 161.801C146.035 167.345 141.898 171.737 142.196 180.253L142.197 180.252Z" fill="#FEC201"/>
<path fill-rule="evenodd" clip-rule="evenodd" d="M292.424 124.216C291.642 115.36 287.073 106.74 291.972 99.3037C294.143 121.263 294.465 194.507 302.82 208.922C313.611 207.295 332.047 194.061 336.77 188.265C341.977 181.878 341.346 175.125 338.049 166.634C336.542 162.751 335.484 163.907 333.169 158.347C330.943 153.001 331.51 153.354 328.909 152.175C326.436 151.056 326.835 150.267 324.394 144.753L318.673 141.178C315.807 141.907 299.681 146.743 302.712 133.312L306.085 128.352C306.261 128.124 306.549 127.674 306.692 127.482C306.838 127.285 307.085 126.864 307.273 126.551C304.053 120.51 299.908 115.576 297.175 109.437L295.596 114.732C293.659 106.958 292.595 104.191 294.002 95.0809C321.405 78.9353 338.507 141.653 344.905 157.245C349.2 167.71 353.956 171.523 356.522 184.1C357.226 175.829 353.884 171.491 350.61 165.868C346.894 159.487 338.979 136.798 335.636 128.007C333.468 122.304 331.732 113.992 329.207 108.087C325.283 98.9103 314.288 80.4225 299.293 86.0672C295.43 87.5223 289.443 97.039 288.719 101.565L292.427 124.214L292.424 124.216Z" fill="#FEC201"/>
<path fill-rule="evenodd" clip-rule="evenodd" d="M227.404 243.748C188.597 230.395 203.673 269.305 169.022 276.871C172.212 286.386 187.254 298.533 202.605 298.487C202.325 298.278 201.918 297.583 201.767 297.854L194.103 294.669C190.425 293.011 188.692 291.298 186.835 289.151C195.452 292.471 199.649 298.409 211.665 295.52C219.425 289.708 220.85 277.443 209.023 276.161L203.693 285.472C206.765 288.685 205.954 286.417 207.796 290.347C197.531 288.483 201.175 278.846 206.082 273.345C216.52 271.599 218.533 275.7 225.238 279.302C221.794 257.596 223.843 249.321 236.869 237.644C242.313 232.762 249.486 230.464 257.929 230.591C268.958 230.753 272.517 234.717 278.825 238.743C274.218 231.143 264.75 223.055 251.248 224.284C237.67 225.521 232.705 234.487 227.401 243.748H227.404Z" fill="#FEC201"/>
<path fill-rule="evenodd" clip-rule="evenodd" d="M167.647 296.171L162.787 293.938C160.151 296.888 160.111 297.759 158.382 301.839C154.794 310.301 150.22 317.906 147.729 326.581C181.803 326.3 209.622 315.543 249.979 339.119C256.982 336.878 263.898 332.989 271.558 330.584C289.696 324.889 307.256 323.623 326.621 324.931C334.56 325.467 344.686 327.658 352.438 326.397L337.437 293.728L332.004 296.029C332.219 302.027 339.287 312.858 341.534 320.256C290.041 317.315 293.821 316.075 249.98 331.61C235.615 324.642 228.945 320.843 209.89 318.668C191.953 316.619 175.05 319.725 158.908 318.258L167.65 296.172L167.647 296.171Z" fill="#FEC201"/>
<path fill-rule="evenodd" clip-rule="evenodd" d="M245.634 75.957C240.713 68.2517 235.382 64.8972 237.366 50.4001C238.532 41.8825 243.911 31.4256 248.655 26.0104C264.865 34.4133 249.097 54.3028 248.459 55.4752C257.915 53.7826 255.874 51.1497 261.779 48.4861C263.646 68.7798 255.488 66.5484 248.589 76.3345C258.744 74.8486 265.6 67.7381 269.225 59.9234C274.886 47.7219 273.075 41.0062 269.529 28.7753C269.109 28.91 267.899 29.3128 267.685 29.3208L266.128 29.2902C263.16 29.1408 257.709 7.27986 249.977 0C229.91 10.1529 215.357 67.6568 245.634 75.9583V75.957Z" fill="#FEC201"/>
<path fill-rule="evenodd" clip-rule="evenodd" d="M304.403 211.361C309.413 234.448 332.958 229.461 347.36 221.295C352.926 218.138 355.312 214.985 359.777 211.429C358.614 202.346 348.87 187.896 343.774 183.725C337.608 190.226 341.664 190.966 327.739 200.371C321.55 204.551 312.455 208.996 304.403 211.361Z" fill="#FEC201"/>
<path fill-rule="evenodd" clip-rule="evenodd" d="M139.187 209.791C144.893 219.879 182.706 244.342 194.601 212.434L189.494 209.515C187.121 208.582 184.775 207.609 182.954 206.786C176.451 203.851 166.937 198.069 162.227 193.167C159.665 190.501 157.924 185.939 154.862 183.83C149.142 188.325 141.803 201.673 139.187 209.79V209.791Z" fill="#FEC201"/>
<path fill-rule="evenodd" clip-rule="evenodd" d="M144.255 270.571C146.532 276.317 163.319 288.915 172.154 291.556C167.113 281.567 155.138 275.733 173.044 270.248C175.44 264.34 178.354 260.658 180.249 256.218C187.565 239.083 148.773 259.331 144.255 270.571Z" fill="#FEC201"/>
<path fill-rule="evenodd" clip-rule="evenodd" d="M132.155 236.218C141.205 241.876 163.002 242.761 173.782 239.51C176.599 236.365 177.823 233.498 179.022 230.441C170.927 229.869 161.613 228.746 154.655 225.897C145.832 222.282 143.37 217.638 137.686 214.013C134.721 218.654 132.002 229.772 132.154 236.219L132.155 236.218Z" fill="#FEC201"/>
<path fill-rule="evenodd" clip-rule="evenodd" d="M325.886 270.034C331.512 272.149 331.856 271.389 335.38 274.782C335.492 284.941 330.326 284.187 326.728 291.513C335.615 289.24 350.793 277.007 354.73 270.571C350.284 263.045 339.858 256.405 330.677 251.93C308.462 241.105 322.521 261.552 325.886 270.034Z" fill="#FEC201"/>
<path fill-rule="evenodd" clip-rule="evenodd" d="M320.408 230.112C320.68 233.276 323.453 237.642 325.011 239.922C338.693 241.202 352.92 242.283 366.682 236.718C367.487 229.992 364.393 218.036 360.945 214.001C350.883 224.155 341.444 229.271 320.407 230.11L320.408 230.112Z" fill="#FEC201"/>
<path fill-rule="evenodd" clip-rule="evenodd" d="M141.114 268.277C146.73 265.89 148.157 261.536 157.964 255.179C171.571 246.357 174.945 249.494 175.693 242.884C169.634 242.073 160.685 243.424 153.539 242.987C145.236 242.48 139.616 240.913 132.181 239.998C132.036 254.147 137.056 258.655 141.114 268.276V268.277Z" fill="#FEC201"/>
<path fill-rule="evenodd" clip-rule="evenodd" d="M323.149 243.266C323.819 248.275 325.965 247.111 330.731 249.233C334.149 250.755 336.475 252.42 339.918 254.611C348.646 260.166 354.834 266.627 356.985 267.954C362.508 262.136 366.955 250.285 366.821 239.896C359.799 240.992 353.887 242.416 346.447 242.93C339.347 243.419 329.268 241.63 323.149 243.266Z" fill="#FEC201"/>
<path fill-rule="evenodd" clip-rule="evenodd" d="M241.216 106.074L258.418 106.093C265.942 83.3302 266.899 99.5559 268.309 88.0732L231.12 87.6331C232.2 95.8839 232.673 90.6208 237.014 95.9213C239.218 98.6102 239.687 102.345 241.216 106.074Z" fill="#FEC201"/>
<path fill-rule="evenodd" clip-rule="evenodd" d="M313.429 251.898C318.008 250.021 320.635 247.663 320.921 242.823C318.072 240.936 316.474 241.257 313.603 239.939C308.136 237.43 304.479 231.982 288.295 230.637C293.079 243.963 307.296 232.658 313.429 251.898Z" fill="#FEC201"/>
<path fill-rule="evenodd" clip-rule="evenodd" d="M177.755 239.611C189.496 238.204 184.545 232.401 194.906 230.321C204.031 228.49 212.068 233.773 214.289 224.46C196.504 222.372 182.115 225.421 177.755 239.611Z" fill="#FEC201"/>
<path fill-rule="evenodd" clip-rule="evenodd" d="M178.231 242.824C178.379 246.257 176.033 247.15 185.439 251.927C188.476 244.477 187.536 243.292 195.776 240.01C203.38 236.981 208.336 238.267 210.602 230.644C204.992 231.165 198.121 232.65 193.423 235.114C190.949 236.41 189.32 237.913 186.927 239.215C183.505 241.08 181.491 240.954 178.231 242.824Z" fill="#FEC201"/>
<path fill-rule="evenodd" clip-rule="evenodd" d="M321.293 239.266C317.195 225.873 301.228 221.78 284.656 224.658C287.418 233.468 294.821 228.717 303.781 230.244C314.991 232.152 310.552 239.436 321.291 239.267L321.293 239.266Z" fill="#FEC201"/>
<path fill-rule="evenodd" clip-rule="evenodd" d="M233.456 83.4876L260.673 83.8344C267.002 83.6797 265.097 84.632 265.942 80.3078C260.764 77.5616 240.741 78.6046 233.397 79.4782L233.456 83.4876Z" fill="#FEC201"/>
<path fill-rule="evenodd" clip-rule="evenodd" d="M306.246 140.229C312.986 141.596 313.258 142.011 316.823 137.124C316.697 132.665 316.351 132.614 313.765 129.351C304.326 129.317 303.44 133.293 306.246 140.229Z" fill="#FEC201"/>
<path fill-rule="evenodd" clip-rule="evenodd" d="M183.616 130.002C180.712 137.978 181.229 141.241 190.53 140.717L194.147 137.221C193.993 132.719 193.192 132.196 190.754 129.47L183.617 130.001L183.616 130.002Z" fill="#FEC201"/>
</svg>
