<svg width="142" height="142" viewBox="0 0 142 142" fill="none" xmlns="http://www.w3.org/2000/svg">
<g clip-path="url(#clip0_80_3844)">
<path d="M72.2615 92.1418C84.9009 92.1418 95.1472 81.8955 95.1472 69.2561C95.1472 56.6167 84.9009 46.3704 72.2615 46.3704C59.622 46.3704 49.3757 56.6167 49.3757 69.2561C49.3757 81.8955 59.622 92.1418 72.2615 92.1418Z" fill="#A0616A"/>
<path d="M53.3188 97.2664L58.0895 85.0747L82.738 81.3642L85.3863 108.352L60.4728 108.882L53.3188 97.2664Z" fill="#A0616A"/>
<path d="M95.3688 73.4787C95.0718 74.6686 94.4714 77.5019 93.5337 77.5158C92.7677 77.527 92.0345 65.2354 92.7997 63.2023C93.6787 60.8666 91.3688 57.9119 89.6288 56.3953C86.5002 53.6682 79.5555 59.5239 72.4938 56.8712C72.3066 56.801 72.3439 56.8089 70.1139 55.9193C63.2522 53.1815 62.8915 53.1025 62.4984 53.0634C59.172 52.7344 55.1125 55.4563 53.4549 58.7751C51.7317 62.225 53.1715 65.184 51.551 73.5302C51.3622 74.5031 51.0656 75.8896 50.5991 75.9101C49.7461 75.9473 48.9133 71.3916 48.6952 70.1984C47.7813 65.1993 46.9003 60.3797 48.6952 54.9673C48.891 54.377 50.0976 52.1859 52.5029 47.8278C55.9682 41.5495 57.711 38.3985 58.2146 37.8323C61.8267 33.7703 68.4015 30.0648 73.9217 31.6447C76.7117 32.4433 76.2115 33.7271 79.6333 34.9765C85.7314 37.203 91.0312 34.4801 92.0086 36.4044C92.5264 37.4238 91.0777 38.2641 91.0567 40.2122C91.0207 43.5547 95.248 44.5206 97.7203 47.8277C99.0493 49.6057 101.324 49.6247 95.3688 73.4787Z" fill="#2F2E41"/>
<path d="M123.721 117.408C122.799 118.445 121.842 119.46 120.851 120.451C107.536 133.766 89.831 141.1 71.0001 141.1C54.7241 141.1 39.291 135.622 26.8051 125.537C26.7971 125.532 26.7918 125.526 26.7839 125.518C25.1274 124.183 23.5239 122.762 21.9761 121.262C22.0052 121.029 22.037 120.798 22.0715 120.57C22.2888 119.033 22.53 117.567 22.8003 116.218C25.0134 105.161 54.1331 93.5524 54.8911 93.2501C54.9017 93.2475 54.907 93.2449 54.907 93.2449C54.907 93.2449 58.6547 107.059 74.7132 106.881C85.6514 106.762 83.5311 93.2449 83.5311 93.2449C83.5311 93.2449 83.6636 93.2713 83.9127 93.3244C87.0719 93.995 109.007 98.8133 117.66 105.389C120.297 107.393 122.189 111.66 123.549 116.748C123.607 116.966 123.663 117.188 123.721 117.408Z" fill="#6C63FF"/>
<path d="M120.851 20.7491C107.535 7.43383 89.8309 0.100006 71 0.100006C52.1691 0.100006 34.4646 7.43383 21.1491 20.7491C7.83364 34.0647 0.5 51.7691 0.5 70.6C0.5 87.7878 6.60913 104.037 17.8043 116.868C18.8724 118.095 19.9882 119.29 21.1491 120.451C21.4221 120.724 21.6977 120.997 21.976 121.262C23.5238 122.762 25.1273 124.183 26.7838 125.518C26.7917 125.526 26.797 125.532 26.805 125.537C39.2909 135.622 54.7241 141.1 71 141.1C89.8309 141.1 107.535 133.766 120.851 120.451C121.842 119.46 122.799 118.445 123.721 117.408C135.216 104.496 141.5 88.0317 141.5 70.6C141.5 51.7691 134.166 34.0647 120.851 20.7491ZM123.549 116.748C121.463 119.121 119.221 121.352 116.836 123.422C112.311 127.358 107.276 130.719 101.845 133.396C99.9394 134.336 97.9861 135.192 95.9878 135.958C88.2248 138.938 79.7992 140.57 71 140.57C62.5082 140.57 54.3662 139.049 46.8312 136.266C43.7382 135.126 40.7486 133.772 37.8783 132.221C37.4568 131.993 37.0381 131.763 36.622 131.527C34.4328 130.287 32.3151 128.932 30.2823 127.469C27.3695 125.381 24.6237 123.072 22.0714 120.57C20.6402 119.168 19.2726 117.708 17.966 116.189C7.41485 103.934 1.03008 87.9998 1.03008 70.6C1.03008 32.0187 32.4185 0.630081 71 0.630081C109.582 0.630081 140.97 32.0187 140.97 70.6C140.97 88.2675 134.389 104.424 123.549 116.748Z" fill="#3F3D56"/>
</g>
<defs>
<clipPath id="clip0_80_3844">
<rect width="141" height="141" fill="white" transform="translate(0.5 0.100006)"/>
</clipPath>
</defs>
</svg>
