<svg width="25" height="24" viewBox="0 0 25 24" fill="none" xmlns="http://www.w3.org/2000/svg">
<path d="M22.0306 10.2806L17.5306 14.7806C17.3899 14.9213 17.199 15.0004 17 15.0004C16.801 15.0004 16.6101 14.9213 16.4694 14.7806C16.3286 14.6399 16.2496 14.449 16.2496 14.25C16.2496 14.051 16.3286 13.8601 16.4694 13.7194L19.6897 10.5H15.9688C14.1394 10.4995 12.3617 11.107 10.9153 12.2271C9.46889 13.3472 8.43578 14.9162 7.97844 16.6875C7.92871 16.8802 7.80447 17.0452 7.63305 17.1463C7.46163 17.2474 7.25707 17.2763 7.06437 17.2266C6.87168 17.1768 6.70663 17.0526 6.60554 16.8812C6.50444 16.7097 6.47558 16.5052 6.52531 16.3125C7.06495 14.2186 8.28571 12.3637 9.99537 11.0398C11.705 9.71596 13.8064 8.99835 15.9688 8.99999H19.6916L16.4694 5.78061C16.3997 5.71093 16.3444 5.62821 16.3067 5.53716C16.269 5.44612 16.2496 5.34854 16.2496 5.24999C16.2496 5.15144 16.269 5.05386 16.3067 4.96282C16.3444 4.87177 16.3997 4.78905 16.4694 4.71936C16.6101 4.57863 16.801 4.49957 17 4.49957C17.0985 4.49957 17.1961 4.51898 17.2872 4.55669C17.3782 4.59441 17.4609 4.64968 17.5306 4.71936L22.0306 9.21936C22.1004 9.28902 22.1557 9.37174 22.1934 9.46278C22.2312 9.55383 22.2506 9.65143 22.2506 9.74999C22.2506 9.84855 22.2312 9.94615 22.1934 10.0372C22.1557 10.1282 22.1004 10.211 22.0306 10.2806ZM18.5 19.5H4.25V8.24999C4.25 8.05108 4.17098 7.86031 4.03033 7.71966C3.88968 7.57901 3.69891 7.49999 3.5 7.49999C3.30109 7.49999 3.11032 7.57901 2.96967 7.71966C2.82902 7.86031 2.75 8.05108 2.75 8.24999V20.25C2.75 20.4489 2.82902 20.6397 2.96967 20.7803C3.11032 20.921 3.30109 21 3.5 21H18.5C18.6989 21 18.8897 20.921 19.0303 20.7803C19.171 20.6397 19.25 20.4489 19.25 20.25C19.25 20.0511 19.171 19.8603 19.0303 19.7197C18.8897 19.579 18.6989 19.5 18.5 19.5Z" fill="black"/>
</svg>
