<?xml version="1.0" encoding="UTF-8"?>
<svg version="1.1" xmlns="http://www.w3.org/2000/svg" width="512" height="512">
<path d="M0 0 C0.7230835 0.30405762 1.44616699 0.60811523 2.19116211 0.92138672 C7.90857817 3.46947511 13.26326582 6.84199284 16.625 12.25 C17.71920422 17.47786462 17.81948679 22.11176038 16.0625 27.1875 C13.2127053 31.3671989 10.08157029 34.30614324 5.1875 35.9375 C-1.87929074 36.81505785 -6.82642485 35.01793146 -13.0625 31.875 C-29.34369918 24.14467746 -46.07163097 19.02444341 -63.8125 15.9375 C-65.029375 15.71191406 -66.24625 15.48632812 -67.5 15.25390625 C-114.92290457 7.84407741 -166.58006936 20.47678219 -205.9296875 47.82421875 C-251.95290612 81.56210666 -280.82165531 127.97524073 -289.5625 184.58203125 C-295.07087845 224.52221724 -286.97640949 266.59603483 -267.8125 301.9375 C-267.45397949 302.61296875 -267.09545898 303.2884375 -266.72607422 303.984375 C-261.79664348 313.2551029 -256.38762947 321.71568907 -249.8125 329.9375 C-249.17441406 330.77925781 -248.53632813 331.62101562 -247.87890625 332.48828125 C-216.42261005 372.89705161 -168.60179154 397.98707859 -118.1796875 404.56640625 C-80.53173478 408.71554257 -42.87396743 402.57056952 -8.8125 385.9375 C-8.0999707 385.59348145 -7.38744141 385.24946289 -6.65332031 384.89501953 C26.64051404 368.64211223 54.04839664 342.47504883 73.1875 310.9375 C73.56261719 310.32567871 73.93773437 309.71385742 74.32421875 309.08349609 C89.91534547 283.41533995 99.21588855 253.18159508 100.69921875 223.19921875 C100.73747772 222.44074646 100.77573669 221.68227417 100.81515503 220.90081787 C100.99802222 217.12136252 101.14508551 213.34466315 101.24121094 209.56201172 C101.49349496 202.02725798 101.76894171 195.63620693 107.1875 189.9375 C112.22444695 186.09982613 118.09513128 186.12034175 124.1875 186.9375 C128.63896251 189.12276342 131.37635145 191.8769521 134.1875 195.9375 C145.51514529 229.92043586 126.44720437 282.35963727 111.50537109 312.78930664 C101.59577239 332.19891652 89.4984251 349.46206473 74.6171875 365.3203125 C72.66967645 367.41811379 70.81661965 369.54059773 69 371.75 C65.75303483 375.5748149 62.0147147 378.70927277 58.1875 381.9375 C56.78177734 383.175 56.78177734 383.175 55.34765625 384.4375 C9.41919659 424.63487719 -51.28189642 443.42021444 -111.86328125 439.66015625 C-131.13347308 438.1679825 -150.61420301 434.4792859 -168.8125 427.9375 C-169.95187012 427.54618896 -169.95187012 427.54618896 -171.11425781 427.14697266 C-199.67574798 417.30660239 -225.38217821 402.14202161 -247.8125 381.9375 C-248.35455078 381.45571289 -248.89660156 380.97392578 -249.45507812 380.47753906 C-294.61382995 340.26374905 -320.9589027 283.07826568 -324.8125 222.9375 C-327.53478676 158.82422417 -305.54260621 99.17482598 -262.42382812 51.93920898 C-225.13943323 11.74513343 -174.04696925 -12.67748509 -119.8125 -19.0625 C-118.74 -19.19398437 -117.6675 -19.32546875 -116.5625 -19.4609375 C-76.41933644 -23.41119562 -36.8511955 -15.81782501 0 0 Z " fill="#1FBE54" transform="translate(350.8125,46.0625)"/>
<path d="M0 0 C3.83084349 2.61193874 6.65161815 5.67823629 8.75 9.875 C8.98828125 12.265625 8.98828125 12.265625 9.0625 15.125 C9.09988281 16.05828125 9.13726562 16.9915625 9.17578125 17.953125 C8.07757233 25.48945774 1.03273961 30.86728813 -4.109375 35.96484375 C-4.97258362 36.82759415 -5.83579224 37.69034454 -6.72515869 38.57923889 C-8.5484542 40.39952034 -10.37417253 42.21737777 -12.20214844 44.03295898 C-14.98165299 46.79427306 -17.75313794 49.56343861 -20.5234375 52.33398438 C-22.30161364 54.10724195 -24.08024483 55.88004336 -25.859375 57.65234375 C-26.68048767 58.4723436 -27.50160034 59.29234344 -28.34759521 60.13719177 C-31.85873445 63.61987919 -35.37914723 67.03635541 -39.13574219 70.25415039 C-43.96919814 74.41961246 -48.43568873 78.94825759 -52.92591858 83.47575378 C-54.50573133 85.06853491 -56.08882586 86.65799157 -57.67272949 88.2467041 C-61.03466861 91.61997313 -64.39263819 94.99717602 -67.75 98.375 C-71.64597349 102.29471835 -75.54363538 106.21272742 -79.4455719 110.12651062 C-80.99181555 111.67915238 -82.5349738 113.23481403 -84.07800293 114.79064941 C-88.64006571 119.37619783 -93.25756339 123.81138608 -98.17004395 128.01989746 C-102.2553832 131.66359138 -106.07238197 135.59023502 -109.92591858 139.47575378 C-111.50573133 141.06853491 -113.08882586 142.65799157 -114.67272949 144.2467041 C-118.03466861 147.61997313 -121.39263819 150.99717602 -124.75 154.375 C-128.64597349 158.29471835 -132.54363538 162.21272742 -136.4455719 166.12651062 C-137.99181555 167.67915238 -139.5349738 169.23481403 -141.07800293 170.79064941 C-145.64442939 175.38058313 -150.26620348 179.82080186 -155.18347168 184.0333252 C-159.20049369 187.6132656 -162.95333186 191.47103458 -166.74072266 195.29055786 C-168.2869274 196.84973727 -169.83641896 198.40558621 -171.38671875 199.96069336 C-174.67732983 203.26263136 -177.96396962 206.56850416 -181.25 209.875 C-185.06336505 213.71211476 -188.87842149 217.54751675 -192.69775391 221.37869263 C-194.21076052 222.89809466 -195.7206797 224.42051703 -197.23046875 225.94311523 C-202.39692014 231.13697792 -207.65439212 236.14429678 -213.25 240.875 C-214.6421875 242.0815625 -214.6421875 242.0815625 -216.0625 243.3125 C-220.68187595 245.57689998 -225.20349335 245.83893947 -230.25 244.875 C-234.94231754 242.05182139 -238.83298424 238.70772868 -242.78515625 234.96484375 C-243.42228043 234.36566635 -244.0594046 233.76648895 -244.71583557 233.14915466 C-254.24239049 224.12002359 -263.44124877 214.75144801 -272.6875 205.4375 C-276.39139385 201.70650176 -280.09906319 197.97930257 -283.80859375 194.25390625 C-284.63894638 193.41525528 -285.46929901 192.57660431 -286.32481384 191.71253967 C-290.48886652 187.53111658 -294.72877984 183.53906883 -299.20161438 179.69184875 C-303.27057825 176.08281545 -307.08248931 172.20543829 -310.9296875 168.36328125 C-312.27064987 167.02731148 -312.27064987 167.02731148 -313.63870239 165.66435242 C-315.51403758 163.79405134 -317.38822488 161.92267516 -319.26074219 160.04956055 C-321.65635363 157.65384671 -324.05882127 155.2651347 -326.46302605 152.8780489 C-328.76890397 150.58595591 -331.06759995 148.28668249 -333.3671875 145.98828125 C-334.22859344 145.13406082 -335.08999939 144.27984039 -335.97750854 143.3997345 C-336.77238678 142.60177963 -337.56726501 141.80382477 -338.38623047 140.98168945 C-339.0860202 140.28332474 -339.78580994 139.58496002 -340.50680542 138.86543274 C-344.30606107 134.52732676 -344.63192897 130.95073141 -344.5 125.34375 C-344.02141667 120.61773965 -342.26936591 117.84071507 -338.875 114.625 C-333.95281478 111.34354319 -330.21074619 110.26882242 -324.25 110.875 C-317.29569945 113.71546953 -312.84260007 117.76091202 -307.65625 123.11328125 C-306.46980896 124.31176949 -306.46980896 124.31176949 -305.25939941 125.5344696 C-302.74657306 128.07613538 -300.24780256 130.63107604 -297.75 133.1875 C-295.2496651 135.73057773 -292.74643765 138.2707393 -290.24060059 140.80839539 C-288.68742613 142.38297691 -287.13779471 143.96106436 -285.59240723 145.54328918 C-282.28937768 148.90636577 -278.96953011 152.17355988 -275.390625 155.24316406 C-270.13329094 159.76636843 -265.29403006 164.70662962 -260.40625 169.62109375 C-259.38657291 170.64264047 -258.36667144 171.66396326 -257.34655762 172.68507385 C-254.68774939 175.34766437 -252.03196042 178.01324599 -249.37683105 180.67950439 C-246.65671607 183.40992671 -243.93369815 186.13745074 -241.2109375 188.86523438 C-235.88781137 194.199022 -230.56787782 199.53597916 -225.25 204.875 C-219.17196225 199.88790587 -213.65519511 194.3982479 -208.12422371 188.8243885 C-206.43945136 187.12669673 -204.75143889 185.43228494 -203.06260681 183.7386322 C-198.87030524 179.53305507 -194.68348639 175.32203352 -190.496521 171.11114502 C-186.94998103 167.54476059 -183.40132212 163.98050951 -179.84991264 160.41897392 C-178.19952945 158.76218234 -176.55222541 157.10237249 -174.90504456 155.44239807 C-166.58920168 147.08643582 -166.58920168 147.08643582 -162.26147461 143.38647461 C-157.18597161 139.04515798 -152.53452626 134.27058399 -147.83329773 129.53346252 C-146.11905414 127.80627324 -144.40154698 126.0823868 -142.68322754 124.35925293 C-139.03597559 120.70066029 -135.39268685 117.03813719 -131.75 113.375 C-127.5235937 109.12486631 -123.29550978 104.87642938 -119.06315613 100.63221741 C-117.38396365 98.9466171 -115.70784924 97.25799859 -114.03186035 95.56921387 C-109.27097499 90.78574004 -104.47197959 86.12763417 -99.33947754 81.73962402 C-95.05759018 77.91852048 -91.05955916 73.79120698 -87.01849365 69.71865845 C-85.3378576 68.02507138 -83.65395371 66.33479223 -81.96923828 64.64526367 C-78.39331463 61.05800187 -74.82135568 57.4668088 -71.25 53.875 C-67.10620177 49.70747027 -62.96072339 45.54164025 -58.81097412 41.3800354 C-57.16501894 39.72767468 -55.52214355 38.07229535 -53.87939453 36.41674805 C-49.02940075 31.54336223 -44.13855164 26.78348918 -38.9085083 22.31311035 C-36.66244855 20.36552783 -34.58941729 18.27681928 -32.5234375 16.140625 C-31.7190625 15.31949219 -30.9146875 14.49835938 -30.0859375 13.65234375 C-28.43369636 11.95551833 -26.7853039 10.25493753 -25.140625 8.55078125 C-17.53810291 0.81380941 -10.90631433 -3.77526265 0 0 Z " fill="#1FBE54" transform="translate(477.25,84.125)"/>
</svg>
